<svg width="78" height="78" viewBox="0 0 78 78" fill="none" xmlns="http://www.w3.org/2000/svg">
<path d="M39 78C17.4663 78 0 60.5362 0 38.9946C0 17.4638 17.4663 0 39 0C60.5446 0 78 17.4638 78 38.9946C78.0109 60.5362 60.5446 78 39 78Z" fill="#3E5C9A"/>
<path d="M33.0619 62.5696H42.5564V38.7988H49.1796L49.8865 30.8389H42.5564C42.5564 30.8389 42.5564 27.8703 42.5564 26.3044C42.5564 24.4232 42.937 23.6838 44.7532 23.6838C46.2106 23.6838 49.8865 23.6838 49.8865 23.6838V15.4194C49.8865 15.4194 44.4705 15.4194 43.3068 15.4194C36.2376 15.4194 33.0511 18.5294 33.0511 24.4884C33.0511 29.6754 33.0511 30.8389 33.0511 30.8389H28.1135V38.8966H33.0511V62.5696H33.0619Z" fill="white"/>
</svg>
