<svg width="78" height="78" viewBox="0 0 78 78" fill="none" xmlns="http://www.w3.org/2000/svg">
<path d="M39 78C17.4663 78 0 60.5362 0 38.9946C0 17.4638 17.4663 0 39 0C60.5446 0 78 17.4638 78 38.9946C78.0109 60.5362 60.5446 78 39 78Z" fill="#DF4B38"/>
<path d="M43.8832 37.9833H28.1244L28.1461 42.4961H38.7716C37.51 47.9875 33.6383 51.3585 28.4289 51.3585C21.599 51.3585 16.0633 45.8235 16.0633 38.9946C16.0633 32.1657 21.599 26.6416 28.4289 26.6416C31.6807 26.6416 34.628 27.8921 36.8358 29.9365L40.3268 26.9352C37.2708 23.9231 33.0728 22.0636 28.4398 22.0636C19.0759 22.0636 11.4955 29.6537 11.4955 39.0055C11.4955 48.3681 19.0867 55.9473 28.4398 55.9473C37.423 55.9473 43.9158 49.0966 43.9158 39.734L43.8832 37.9833Z" fill="white"/>
<path d="M66.5262 38.1681H60.0226V31.6654H55.8681V38.1681H49.3645V42.322H55.8681V48.8248H60.0226V42.322H66.5262V38.1681Z" fill="white"/>
</svg>
