<svg width="111" height="35" viewBox="0 0 111 35" fill="none" xmlns="http://www.w3.org/2000/svg">
<path d="M39.548 10.446C38.7333 10.446 38.1007 10.2553 37.65 9.874C37.2167 9.49267 37 8.938 37 8.21C37 7.49933 37.2167 6.95333 37.65 6.572C38.1007 6.19067 38.7333 6 39.548 6C40.3973 6 41.0387 6.19067 41.472 6.572C41.9053 6.95333 42.122 7.49933 42.122 8.21C42.122 8.938 41.9053 9.49267 41.472 9.874C41.0387 10.2553 40.3973 10.446 39.548 10.446Z" fill="#6047FF"/>
<path d="M39.548 26.286C38.82 26.286 38.2567 26.0693 37.858 25.636C37.4593 25.2026 37.26 24.5786 37.26 23.764V14.522C37.26 13.7073 37.4593 13.0833 37.858 12.65C38.2567 12.2167 38.82 12 39.548 12C40.2933 12 40.8653 12.2167 41.264 12.65C41.68 13.0833 41.888 13.7073 41.888 14.522V23.764C41.888 24.5786 41.6887 25.2026 41.29 25.636C40.8913 26.0693 40.3107 26.286 39.548 26.286Z" fill="white"/>
<path d="M37.858 25.636C38.2567 26.0693 38.82 26.286 39.548 26.286C40.3107 26.286 40.8913 26.0693 41.29 25.636C41.6887 25.2026 41.888 24.5786 41.888 23.764V14.522C41.888 13.7073 41.68 13.0833 41.264 12.65C40.8653 12.2167 40.2933 12 39.548 12C38.82 12 38.2567 12.2167 37.858 12.65C37.4593 13.0833 37.26 13.7073 37.26 14.522V23.764C37.26 24.5786 37.4593 25.2026 37.858 25.636Z" fill="white"/>
<path d="M88.072 26.8138C86.6507 26.8138 85.4113 26.5451 84.354 26.0078C83.2967 25.4704 82.4733 24.6991 81.884 23.6938C81.2947 22.6884 81 21.5011 81 20.1318C81 19.0918 81.1647 18.1644 81.494 17.3498C81.8233 16.5178 82.3 15.8158 82.924 15.2438C83.2651 14.9216 82.5394 13.2619 82.953 13.0278C83.296 12.8336 84.7671 14.0513 85.16 13.9178C86.0267 13.6058 86.9973 13.4498 88.072 13.4498C88.9367 13.4498 89.734 13.5492 90.464 13.7481C90.9339 13.8761 92.6039 12.8173 93.018 13.0278C93.6625 13.3553 92.9888 14.9977 93.453 15.4992C93.7503 15.8203 94.0107 16.1772 94.234 16.5698C94.8233 17.5578 95.118 18.7451 95.118 20.1318C95.118 21.1544 94.9533 22.0818 94.624 22.9138C94.2947 23.7458 93.818 24.4564 93.194 25.0458C92.5873 25.6178 91.842 26.0598 90.958 26.3718C90.0913 26.6664 89.1293 26.8138 88.072 26.8138ZM88.072 23.4078C88.54 23.4078 88.956 23.2951 89.32 23.0698C89.684 22.8271 89.9613 22.4718 90.152 22.0038C90.36 21.5184 90.464 20.8944 90.464 20.1318C90.464 18.9704 90.2387 18.1384 89.788 17.6358C89.3373 17.1158 88.7653 16.8558 88.072 16.8558C87.604 16.8558 87.188 16.9684 86.824 17.1938C86.46 17.4191 86.174 17.7744 85.966 18.2598C85.758 18.7278 85.654 19.3518 85.654 20.1318C85.654 21.2758 85.8793 22.1078 86.33 22.6278C86.7807 23.1478 87.3613 23.4078 88.072 23.4078Z" fill="#6047FF"/>
<path d="M2.522 26.234C1.98467 26.234 1.534 26.1127 1.17 25.87C0.806 25.61 0.580667 25.2633 0.494 24.83C0.407333 24.3793 0.485333 23.8767 0.728 23.322L7.202 9.386C7.514 8.71 7.89533 8.216 8.346 7.904C8.814 7.592 9.34267 7.436 9.932 7.436C10.5213 7.436 11.0327 7.592 11.466 7.904C11.9167 8.216 12.3067 8.71 12.636 9.386L19.11 23.322C19.3873 23.8767 19.4827 24.3793 19.396 24.83C19.3267 25.2807 19.11 25.6273 18.746 25.87C18.3993 26.1127 17.966 26.234 17.446 26.234C16.7527 26.234 16.2153 26.078 15.834 25.766C15.47 25.454 15.1407 24.9513 14.846 24.258L13.442 20.956L15.262 22.282H4.55L6.396 20.956L4.992 24.258C4.68 24.9513 4.35933 25.454 4.03 25.766C3.70067 26.078 3.198 26.234 2.522 26.234ZM9.88 12.662L6.864 19.864L6.136 18.616H13.702L12.974 19.864L9.932 12.662H9.88Z" fill="white"/>
<path d="M23.64 26.234C22.912 26.234 22.3487 26.0347 21.95 25.636C21.5513 25.2373 21.352 24.6567 21.352 23.894V15.288C21.352 14.5427 21.5427 13.9707 21.924 13.572C22.3227 13.1733 22.886 12.974 23.614 12.974C24.342 12.974 24.8967 13.1733 25.278 13.572C25.6593 13.9707 25.85 14.5427 25.85 15.288V16.51L25.564 15.444C25.98 14.6293 26.5693 14.0053 27.332 13.572C28.112 13.1387 28.996 12.922 29.984 12.922C31.0067 12.922 31.8473 13.1213 32.506 13.52C33.1647 13.9013 33.6587 14.508 33.988 15.34C34.3173 16.1547 34.482 17.186 34.482 18.434V23.894C34.482 24.6567 34.2827 25.2373 33.884 25.636C33.4853 26.0347 32.9133 26.234 32.168 26.234C31.4227 26.234 30.8507 26.0347 30.452 25.636C30.0533 25.2373 29.854 24.6567 29.854 23.894V18.616C29.854 17.836 29.7153 17.2813 29.438 16.952C29.178 16.6227 28.788 16.458 28.268 16.458C27.5747 16.458 27.02 16.6833 26.604 17.134C26.188 17.5673 25.98 18.1567 25.98 18.902V23.894C25.98 25.454 25.2 26.234 23.64 26.234Z" fill="white"/>
<path d="M46.692 26.234C45.964 26.234 45.4007 26.0347 45.002 25.636C44.6033 25.2373 44.404 24.6567 44.404 23.894V15.288C44.404 14.5427 44.5947 13.9707 44.976 13.572C45.3747 13.1733 45.938 12.974 46.666 12.974C47.394 12.974 47.9487 13.1733 48.33 13.572C48.7113 13.9707 48.902 14.5427 48.902 15.288V16.718L48.616 15.444C48.98 14.6813 49.5173 14.0747 50.228 13.624C50.956 13.156 51.814 12.922 52.802 12.922C53.738 12.922 54.5353 13.1473 55.194 13.598C55.87 14.0487 56.3553 14.7333 56.65 15.652H56.286C56.6847 14.8027 57.2827 14.1353 58.08 13.65C58.8773 13.1647 59.7613 12.922 60.732 12.922C61.7373 12.922 62.5607 13.1213 63.202 13.52C63.8433 13.9013 64.32 14.508 64.632 15.34C64.9613 16.1547 65.126 17.186 65.126 18.434V23.894C65.126 24.6567 64.918 25.2373 64.502 25.636C64.1033 26.0347 63.5313 26.234 62.786 26.234C62.058 26.234 61.4947 26.0347 61.096 25.636C60.6973 25.2373 60.498 24.6567 60.498 23.894V18.564C60.498 17.8187 60.3853 17.2813 60.16 16.952C59.9347 16.6227 59.562 16.458 59.042 16.458C58.4007 16.458 57.9067 16.6833 57.56 17.134C57.2307 17.5847 57.066 18.226 57.066 19.058V23.894C57.066 24.6567 56.8667 25.2373 56.468 25.636C56.0693 26.0347 55.4973 26.234 54.752 26.234C54.0067 26.234 53.4347 26.0347 53.036 25.636C52.6373 25.2373 52.438 24.6567 52.438 23.894V18.564C52.438 17.8187 52.3253 17.2813 52.1 16.952C51.8747 16.6227 51.502 16.458 50.982 16.458C50.358 16.458 49.8727 16.6833 49.526 17.134C49.1967 17.5847 49.032 18.226 49.032 19.058V23.894C49.032 25.454 48.252 26.234 46.692 26.234Z" fill="white"/>
<path d="M74.32 26.286C72.76 26.286 71.408 26.0173 70.264 25.48C69.1373 24.9253 68.2707 24.1453 67.664 23.14C67.0573 22.1347 66.754 20.9473 66.754 19.578C66.754 18.2607 67.04 17.108 67.612 16.12C68.2013 15.1147 68.9987 14.3347 70.004 13.78C71.0267 13.208 72.188 12.922 73.488 12.922C74.4413 12.922 75.308 13.078 76.088 13.39C76.868 13.6847 77.5353 14.1267 78.09 14.716C78.6447 15.288 79.0607 15.9813 79.338 16.796C79.6327 17.6107 79.78 18.5207 79.78 19.526C79.78 19.8727 79.6847 20.1327 79.494 20.306C79.3033 20.462 79 20.54 78.584 20.54H70.628V18.356H76.4L75.984 18.694C75.984 18.0527 75.8973 17.5327 75.724 17.134C75.5507 16.7353 75.2907 16.432 74.944 16.224C74.6147 16.016 74.1987 15.912 73.696 15.912C73.1587 15.912 72.6907 16.042 72.292 16.302C71.9107 16.5447 71.616 16.9087 71.408 17.394C71.2 17.8793 71.096 18.486 71.096 19.214V19.448C71.096 20.6787 71.3647 21.5627 71.902 22.1C72.4567 22.62 73.306 22.88 74.45 22.88C74.8313 22.88 75.2647 22.8367 75.75 22.75C76.2527 22.646 76.7293 22.5073 77.18 22.334C77.6307 22.1607 78.0207 22.1347 78.35 22.256C78.6793 22.36 78.9307 22.5507 79.104 22.828C79.2947 23.088 79.3987 23.3913 79.416 23.738C79.4333 24.0673 79.3553 24.3967 79.182 24.726C79.0087 25.038 78.7227 25.2807 78.324 25.454C77.7173 25.7313 77.0673 25.9393 76.374 26.078C75.698 26.2167 75.0133 26.286 74.32 26.286Z" fill="white"/>
<path d="M98.64 26.234C97.912 26.234 97.3487 26.0347 96.95 25.636C96.5513 25.2373 96.352 24.6567 96.352 23.894V15.288C96.352 14.5427 96.5427 13.9707 96.924 13.572C97.3227 13.1733 97.886 12.974 98.614 12.974C99.342 12.974 99.8967 13.1733 100.278 13.572C100.659 13.9707 100.85 14.5427 100.85 15.288V16.51L100.564 15.444C100.98 14.6293 101.569 14.0053 102.332 13.572C103.112 13.1387 103.996 12.922 104.984 12.922C106.007 12.922 106.847 13.1213 107.506 13.52C108.165 13.9013 108.659 14.508 108.988 15.34C109.317 16.1547 109.482 17.186 109.482 18.434V23.894C109.482 24.6567 109.283 25.2373 108.884 25.636C108.485 26.0347 107.913 26.234 107.168 26.234C106.423 26.234 105.851 26.0347 105.452 25.636C105.053 25.2373 104.854 24.6567 104.854 23.894V18.616C104.854 17.836 104.715 17.2813 104.438 16.952C104.178 16.6227 103.788 16.458 103.268 16.458C102.575 16.458 102.02 16.6833 101.604 17.134C101.188 17.5673 100.98 18.1567 100.98 18.902V23.894C100.98 25.454 100.2 26.234 98.64 26.234Z" fill="white"/>
</svg>
