<svg width="306" height="58" viewBox="0 0 306 58" fill="none" xmlns="http://www.w3.org/2000/svg">
<path d="M109 12C106.773 12 105.232 11.0292 104 10C102.816 8.97077 102 7.96491 102 6C102 4.08186 102.816 3.02923 104 2C105.232 0.970769 106.773 0 109 0C111.321 0 112.816 0.970769 114 2C115.184 3.02923 116 4.08186 116 6C116 7.96491 115.184 8.97077 114 10C112.816 11.0292 111.321 12 109 12Z" fill="#6047FF"/>
<path d="M109 56C106.955 56 106.12 55.1829 105 54C103.88 52.8168 103 51.2238 103 49V24C103 21.7759 103.88 20.1829 105 19C106.12 17.8171 106.955 17 109 17C111.094 17 112.88 17.8171 114 19C115.169 20.1829 116 21.7759 116 24V49C116 51.2238 115.12 52.8168 114 54C112.88 55.1829 111.142 56 109 56Z" fill="white"/>
<path d="M105 54C106.12 55.1829 106.955 56 109 56C111.142 56 112.88 55.1829 114 54C115.12 52.8168 116 51.2238 116 49V24C116 21.7759 115.169 20.1829 114 19C112.88 17.8171 111.094 17 109 17C106.955 17 106.12 17.8171 105 19C103.88 20.1829 103 21.7759 103 24V49C103 51.2238 103.88 52.8168 105 54Z" fill="white"/>
<path d="M243 58.0001C239.074 58.0001 234.921 57.4781 232 56.0001C229.079 54.5218 226.628 51.7655 225 49.0001C223.372 46.2343 223 43.7668 223 40.0001C223 37.1392 223.09 34.2409 224 32.0001C224.91 29.7113 226.276 27.5736 228 26.0001C228.942 25.1137 226.857 20.6441 228 20.0001C228.948 19.4659 232.915 23.3673 234 23.0001C236.394 22.1418 240.031 21.0001 243 21.0001C245.389 21.0001 246.983 21.4529 249 22.0001C250.298 22.3522 254.856 19.421 256 20.0001C257.78 20.901 255.718 25.6205 257 27.0001C257.821 27.8834 259.383 28.9201 260 30.0001C261.628 32.7179 262 36.1854 262 40.0001C262 42.8131 261.91 44.7113 261 47.0001C260.09 49.2888 258.724 51.3787 257 53.0001C255.324 54.5736 253.442 56.1418 251 57.0001C248.606 57.8105 245.921 58.0001 243 58.0001ZM243 49.0001C244.293 49.0001 244.994 48.6198 246 48.0001C247.006 47.3324 247.473 46.2875 248 45.0001C248.575 43.6648 249 42.0979 249 40.0001C249 36.8052 248.245 34.3827 247 33.0001C245.755 31.5696 244.915 31.0001 243 31.0001C241.707 31.0001 240.006 31.38 239 32.0001C237.994 32.6198 237.575 32.6648 237 34.0001C236.425 35.2875 236 37.8544 236 40.0001C236 43.1471 236.755 44.5696 238 46.0001C239.245 47.4305 241.037 49.0001 243 49.0001Z" fill="#6047FF"/>
<path d="M6.99999 56C5.52685 56 3.99792 55.6714 2.99999 55C2.00205 54.2808 1.23759 53.1986 0.999987 52C0.762382 50.7533 1.3347 49.5344 1.99999 48L19 9C19.8554 7.13001 21.7644 5.86307 23 5C24.283 4.13693 25.3843 4 27 4C28.6156 4 29.8121 4.13693 31 5C32.2356 5.86307 33.0972 7.13001 34 9L52 48C52.7602 49.5344 53.2377 50.7533 53 52C52.81 53.2467 51.9979 54.3286 51 55C50.0495 55.6714 49.4256 56 48 56C46.0992 56 44.0453 55.8631 43 55C42.002 54.1369 40.8079 52.9178 40 51L37 41L42 45H12L17 41L13 51C12.1446 52.9178 11.9029 54.1369 11 55C10.0971 55.8631 8.85329 56 6.99999 56ZM27 18L19 38L17 35H37L35 38L27 18Z" fill="white"/>
<path d="M65 56C63.004 56 62.0932 55.1082 61 54C59.9068 52.8918 59 51.1199 59 49V26C59 23.9285 59.9545 22.1082 61 21C62.0932 19.8918 63.004 19 65 19C66.996 19 68.9545 19.8918 70 21C71.0455 22.1082 71 23.9285 71 26V29V26C72.1406 23.7356 72.9088 22.2043 75 21C77.1386 19.7957 80.2911 19 83 19C85.8041 19 88.194 19.8918 90 21C91.806 22.0598 93.0971 23.6875 94 26C94.9029 28.2644 95 30.5312 95 34V49C95 51.1199 94.0932 52.8918 93 54C91.9068 55.1082 91.0435 56 89 56C86.9565 56 85.0932 55.1082 84 54C82.9068 52.8918 82 51.1199 82 49V35C82 32.832 81.7603 30.9153 81 30C80.2871 29.0847 79.4257 29 78 29C76.0991 29 74.1406 29.7473 73 31C71.8594 32.2043 72 33.9285 72 36V49C72 53.3359 69.2772 56 65 56Z" fill="white"/>
<path d="M128 56C125.997 56 125.097 55.1082 124 54C122.903 52.8918 122 51.1199 122 49V26C122 23.9285 122.951 22.1082 124 21C125.097 19.8918 125.997 19 128 19C130.003 19 131.951 19.8918 133 21C134.049 22.1082 134 23.9285 134 26V30V26C135.001 23.8801 136.045 22.2527 138 21C140.003 19.6992 142.282 19 145 19C147.575 19 150.188 19.7473 152 21C153.859 22.2527 155.189 24.4465 156 27H155C156.097 24.6394 157.807 22.3489 160 21C162.193 19.6511 164.33 19 167 19C169.765 19 172.236 19.8918 174 21C175.764 22.0598 177.142 23.6875 178 26C178.906 28.2644 179 30.5312 179 34V49C179 51.1199 178.144 52.8918 177 54C175.903 55.1082 175.05 56 173 56C170.997 56 169.097 55.1082 168 54C166.903 52.8918 166 51.1199 166 49V35C166 32.9285 165.62 30.9153 165 30C164.38 29.0847 163.43 29 162 29C160.236 29 158.954 29.7473 158 31C157.094 32.2527 157 33.6875 157 36V49C157 51.1199 156.097 52.8918 155 54C153.903 55.1082 152.05 56 150 56C147.95 56 147.097 55.1082 146 54C144.903 52.8918 144 51.1199 144 49V35C144 32.9285 143.62 30.9153 143 30C142.38 29.0847 141.43 29 140 29C138.284 29 136.954 29.7473 136 31C135.094 32.2527 135 33.6875 135 36V49C135 53.3359 132.291 56 128 56Z" fill="white"/>
<path d="M205 56C200.689 56 197.162 55.4876 194 54C190.886 52.4642 188.677 49.7833 187 47C185.323 44.2167 184 40.7911 184 37C184 33.3529 184.419 30.7354 186 28C187.629 25.2167 190.222 22.5358 193 21C195.826 19.4163 199.407 19 203 19C205.635 19 207.844 19.1362 210 20C212.156 20.8159 213.467 22.3684 215 24C216.533 25.5837 218.234 27.7444 219 30C219.814 32.2556 220 34.2167 220 37C220 37.9599 219.527 38.5202 219 39C218.473 39.4319 218.15 40 217 40H195V34H211L210 35C210 33.2245 209.479 32.1039 209 31C208.521 29.8961 207.958 28.5759 207 28C206.09 27.4241 204.389 27 203 27C201.515 27 200.102 27.2802 199 28C197.946 28.6719 197.575 29.6564 197 31C196.425 32.3436 196 33.9844 196 36V37C196 40.4074 196.515 42.5124 198 44C199.533 45.4397 201.838 47 205 47C206.054 47 207.659 46.24 209 46C210.389 45.7121 211.754 45.4798 213 45C214.246 44.5202 215.09 44.6642 216 45C216.91 45.2879 217.521 45.2323 218 46C218.527 46.7198 218.952 48.0401 219 49C219.048 49.9117 218.479 51.0883 218 52C217.521 52.8638 217.102 53.5202 216 54C214.323 54.7677 212.916 54.616 211 55C209.132 55.384 206.916 56 205 56Z" fill="white"/>
<path d="M272 56C270.004 56 269.093 55.1082 268 54C266.907 52.8918 266 51.1199 266 49V26C266 23.9285 266.955 22.1082 268 21C269.093 19.8918 270.004 19 272 19C273.996 19 275.955 19.8918 277 21C278.045 22.1082 278 23.9285 278 26V29V26C279.141 23.7356 279.908 22.2043 282 21C284.139 19.7957 287.291 19 290 19C292.805 19 295.193 19.8918 297 21C298.807 22.0598 300.098 23.6875 301 26C301.902 28.2644 302 30.5312 302 34V49C302 51.1199 301.094 52.8918 300 54C298.906 55.1082 298.043 56 296 56C293.957 56 292.094 55.1082 291 54C289.906 52.8918 289 51.1199 289 49V35C289 32.832 288.759 30.9153 288 30C287.287 29.0847 286.426 29 285 29C283.1 29 281.141 29.7473 280 31C278.859 32.2043 279 33.9285 279 36V49C279 53.3359 276.277 56 272 56Z" fill="white"/>
</svg>
