<svg width="24" height="21" viewBox="0 0 24 21" fill="none" xmlns="http://www.w3.org/2000/svg">
<g filter="url(#filter0_d_57_10)">
<path d="M15.5 11H14.71L14.43 10.73C15.4439 9.55402 16.0011 8.0527 16 6.5C16 5.21442 15.6188 3.95772 14.9046 2.8888C14.1903 1.81988 13.1752 0.986756 11.9874 0.494786C10.7997 0.00281635 9.49279 -0.125905 8.23192 0.124899C6.97104 0.375703 5.81285 0.994767 4.90381 1.90381C3.99477 2.81285 3.3757 3.97104 3.1249 5.23192C2.87409 6.49279 3.00282 7.79973 3.49479 8.98744C3.98676 10.1752 4.81988 11.1903 5.8888 11.9046C6.95772 12.6188 8.21442 13 9.5 13C11.11 13 12.59 12.41 13.73 11.43L14 11.71V12.5L19 17.49L20.49 16L15.5 11ZM9.5 11C7.01 11 5 8.99 5 6.5C5 4.01 7.01 2 9.5 2C11.99 2 14 4.01 14 6.5C14 8.99 11.99 11 9.5 11Z" fill="#6047FF"/>
<path d="M14.3629 11.3599L14.5082 11.5H14.71H15.2926L19.7833 15.9996L18.9996 16.7833L14.5 12.2926V11.71V11.5082L14.3599 11.3629L14.2786 11.2786L14.3629 11.3599ZM13.7485 10.7548L13.4041 11.0508C12.3512 11.956 10.9857 12.5 9.5 12.5C8.31331 12.5 7.15328 12.1481 6.16658 11.4888C5.17989 10.8295 4.41085 9.89246 3.95673 8.7961C3.5026 7.69975 3.38378 6.49335 3.61529 5.32946C3.8468 4.16557 4.41825 3.09648 5.25736 2.25736C6.09648 1.41825 7.16557 0.846803 8.32946 0.615291C9.49335 0.38378 10.6997 0.5026 11.7961 0.956726C12.8925 1.41085 13.8295 2.17989 14.4888 3.16658C15.1481 4.15328 15.5 5.31331 15.5 6.5V6.50036C15.501 7.93308 14.9868 9.3184 14.0513 10.4035L13.7485 10.7548ZM4.5 6.5C4.5 9.26614 6.73386 11.5 9.5 11.5C12.2661 11.5 14.5 9.26615 14.5 6.5C14.5 3.73386 12.2661 1.5 9.5 1.5C6.73386 1.5 4.5 3.73386 4.5 6.5Z" stroke="black"/>
</g>
<defs>
<filter id="filter0_d_57_10" x="-1" y="0" width="25.49" height="25.49" filterUnits="userSpaceOnUse" color-interpolation-filters="sRGB">
<feFlood flood-opacity="0" result="BackgroundImageFix"/>
<feColorMatrix in="SourceAlpha" type="matrix" values="0 0 0 0 0 0 0 0 0 0 0 0 0 0 0 0 0 0 127 0" result="hardAlpha"/>
<feOffset dy="4"/>
<feGaussianBlur stdDeviation="2"/>
<feComposite in2="hardAlpha" operator="out"/>
<feColorMatrix type="matrix" values="0 0 0 0 0 0 0 0 0 0 0 0 0 0 0 0 0 0 0.25 0"/>
<feBlend mode="normal" in2="BackgroundImageFix" result="effect1_dropShadow_57_10"/>
<feBlend mode="normal" in="SourceGraphic" in2="effect1_dropShadow_57_10" result="shape"/>
</filter>
</defs>
</svg>
