<svg width="22" height="22" viewBox="0 0 22 22" fill="none" xmlns="http://www.w3.org/2000/svg">
<path d="M11 1.25012H11.4258C10.034 2.5433 9.13947 4.28329 8.89756 6.16761C8.65565 8.05194 9.08169 9.96146 10.1016 11.5642C11.1216 13.167 12.6709 14.3618 14.4803 14.9407C16.2897 15.5197 18.2448 15.4463 20.0058 14.7333C19.3284 16.3632 18.2213 17.7786 16.8025 18.8286C15.3838 19.8786 13.7066 20.5237 11.95 20.6953C10.1933 20.8668 8.42303 20.5583 6.82796 19.8026C5.23289 19.047 3.87287 17.8725 2.89297 16.4044C1.91307 14.9364 1.35004 13.2299 1.26396 11.467C1.17787 9.70409 1.57194 7.95086 2.40415 6.39434C3.23635 4.83783 4.47547 3.53641 5.98932 2.62892C7.50318 1.72142 9.23498 1.24188 11 1.24146V1.25012Z" stroke="#F2EFFF" stroke-width="2" stroke-linecap="round" stroke-linejoin="round"/>
</svg>
