<svg width="81" height="78" viewBox="0 0 81 78" fill="none" xmlns="http://www.w3.org/2000/svg">
<g clip-path="url(#clip0_519_5954)">
<path d="M40.4944 78C18.1355 78 0 60.5362 0 38.9946C0 17.4638 18.1355 0 40.4944 0C62.8645 0 80.9887 17.4638 80.9887 38.9946C81 60.5362 62.8645 78 40.4944 78Z" fill="#29A9E1"/>
<path d="M18.926 52.0544C22.8444 54.4684 27.4969 55.8821 32.4994 55.8821C48.941 55.8821 58.2233 42.5069 57.67 30.5236C59.3977 29.3275 60.8996 27.816 62.0853 26.1087C60.4931 26.7829 58.7879 27.2505 57.0038 27.4463C58.8331 26.3915 60.2334 24.7277 60.8996 22.7269C59.1945 23.7056 57.2974 24.4124 55.276 24.793C53.6612 23.1401 51.3576 22.0962 48.8168 22.0962C43.1029 22.0962 38.9021 27.2288 40.1895 32.568C32.8268 32.2091 26.3112 28.8164 21.941 23.6621C19.6261 27.5006 20.7327 32.5136 24.6851 35.0473C23.2283 35.0038 21.862 34.6232 20.6763 33.9816C20.5859 37.9289 23.5219 41.6261 27.7792 42.4525C26.537 42.7788 25.1706 42.8549 23.7817 42.5939C24.9109 45.9866 28.1744 48.4442 32.0477 48.5203C28.3099 51.3367 23.6123 52.5872 18.926 52.0544Z" fill="white"/>
</g>
<defs>
<clipPath id="clip0_519_5954">
<rect width="81" height="78" fill="white"/>
</clipPath>
</defs>
</svg>
